<svg xmlns="http://www.w3.org/2000/svg" xmlns:xlink="http://www.w3.org/1999/xlink" version="1.1" id="Layer_1" x="0px" y="0px" width="90px" height="90px" viewBox="0 0 90 90" enable-background="new 0 0 90 90" xml:space="preserve">
<g>
	<polygon points="48.152,61.659 50.539,59.841 39.231,45 50.539,30.159 48.152,28.341 35.46,45  "/>
</g>
<path d="M45,5.949c-21.532,0-39.051,17.518-39.051,39.05c0,21.533,17.519,39.052,39.051,39.052c21.533,0,39.05-17.519,39.05-39.052  C84.05,23.467,66.533,5.949,45,5.949z M45,81.268c-19.799,0-35.848-16.237-35.848-36.267S25.201,8.733,45,8.733  c19.798,0,35.849,16.238,35.849,36.268S64.798,81.268,45,81.268z"/>
</svg>